<svg width="50" height="50" viewBox="0 0 50 50" fill="none" xmlns="http://www.w3.org/2000/svg">
<g filter="url(#filter0_d_125_252)">
<rect y="-52" width="50" height="50" fill="white" fill-opacity="0.7" shape-rendering="crispEdges"/>
</g>
<g filter="url(#filter1_d_125_252)">
<rect width="50" height="50" fill="white" fill-opacity="0.7" shape-rendering="crispEdges"/>
</g>
<path opacity="0.7" d="M9.73484 23.9393C9.14905 24.5251 9.14905 25.4749 9.73484 26.0607L19.2808 35.6066C19.8666 36.1924 20.8163 36.1924 21.4021 35.6066C21.9879 35.0208 21.9879 34.0711 21.4021 33.4853L12.9168 25L21.4021 16.5147C21.9879 15.9289 21.9879 14.9792 21.4021 14.3934C20.8163 13.8076 19.8666 13.8076 19.2808 14.3934L9.73484 23.9393ZM39.2046 23.5L10.7955 23.5V26.5L39.2046 26.5V23.5Z" fill="black" fill-opacity="0.8"/>
<defs>
<filter id="filter0_d_125_252" x="-12" y="-64" width="74" height="74" filterUnits="userSpaceOnUse" color-interpolation-filters="sRGB">
<feFlood flood-opacity="0" result="BackgroundImageFix"/>
<feColorMatrix in="SourceAlpha" type="matrix" values="0 0 0 0 0 0 0 0 0 0 0 0 0 0 0 0 0 0 127 0" result="hardAlpha"/>
<feMorphology radius="2" operator="dilate" in="SourceAlpha" result="effect1_dropShadow_125_252"/>
<feOffset/>
<feGaussianBlur stdDeviation="5"/>
<feComposite in2="hardAlpha" operator="out"/>
<feColorMatrix type="matrix" values="0 0 0 0 0 0 0 0 0 0 0 0 0 0 0 0 0 0 0.05 0"/>
<feBlend mode="normal" in2="BackgroundImageFix" result="effect1_dropShadow_125_252"/>
<feBlend mode="normal" in="SourceGraphic" in2="effect1_dropShadow_125_252" result="shape"/>
</filter>
<filter id="filter1_d_125_252" x="-12" y="-12" width="74" height="74" filterUnits="userSpaceOnUse" color-interpolation-filters="sRGB">
<feFlood flood-opacity="0" result="BackgroundImageFix"/>
<feColorMatrix in="SourceAlpha" type="matrix" values="0 0 0 0 0 0 0 0 0 0 0 0 0 0 0 0 0 0 127 0" result="hardAlpha"/>
<feMorphology radius="2" operator="dilate" in="SourceAlpha" result="effect1_dropShadow_125_252"/>
<feOffset/>
<feGaussianBlur stdDeviation="5"/>
<feComposite in2="hardAlpha" operator="out"/>
<feColorMatrix type="matrix" values="0 0 0 0 0 0 0 0 0 0 0 0 0 0 0 0 0 0 0.05 0"/>
<feBlend mode="normal" in2="BackgroundImageFix" result="effect1_dropShadow_125_252"/>
<feBlend mode="normal" in="SourceGraphic" in2="effect1_dropShadow_125_252" result="shape"/>
</filter>
</defs>
</svg>
