<svg width="24" height="23" viewBox="0 0 24 23" fill="none" xmlns="http://www.w3.org/2000/svg">
<path fill-rule="evenodd" clip-rule="evenodd" d="M11.9029 21.1142L22.4826 10.0544C23.3056 8.13201 23.8414 3.74635 19.4008 1.58255C16.1168 -0.0176316 13.6433 2.02211 12.0265 3.57497C10.4402 2.01341 8.09461 0.209021 4.90428 1.59439C0.318148 3.58586 0.703054 7.98711 1.46878 9.93881L11.8442 21.4319C11.8635 21.3282 11.8831 21.2223 11.9029 21.1142Z" fill="black" fill-opacity="0.2"/>
<path d="M22.4826 10.0544L22.8439 10.4L22.9066 10.3345L22.9423 10.2512L22.4826 10.0544ZM11.9029 21.1142L11.5416 20.7686L11.4382 20.8767L11.4111 21.0239L11.9029 21.1142ZM19.4008 1.58255L19.6198 1.13308L19.6198 1.13308L19.4008 1.58255ZM12.0265 3.57497L11.6758 3.93129L12.0222 4.27235L12.3729 3.93559L12.0265 3.57497ZM4.90428 1.59439L5.10343 2.05301L5.10343 2.05301L4.90428 1.59439ZM1.46878 9.93881L1.00332 10.1214L1.03659 10.2062L1.09764 10.2739L1.46878 9.93881ZM11.8442 21.4319L11.473 21.767L12.1505 22.5174L12.3357 21.5235L11.8442 21.4319ZM22.1213 9.70875L11.5416 20.7686L12.2642 21.4598L22.8439 10.4L22.1213 9.70875ZM19.1818 2.03203C21.2542 3.04186 22.1356 4.54427 22.4251 6.00612C22.72 7.49512 22.4034 8.96907 22.023 9.85759L22.9423 10.2512C23.3849 9.21732 23.7477 7.53725 23.4061 5.81188C23.059 4.05936 21.988 2.28704 19.6198 1.13308L19.1818 2.03203ZM12.3729 3.93559C13.1755 3.16469 14.1406 2.32479 15.2779 1.85909C16.3903 1.40364 17.6802 1.30033 19.1818 2.03203L19.6198 1.13308C17.8375 0.264595 16.2486 0.381066 14.899 0.933655C13.5745 1.47599 12.4943 2.43239 11.6802 3.21435L12.3729 3.93559ZM12.3773 3.21864C11.571 2.42495 10.5304 1.52619 9.2525 1.0153C7.95391 0.496167 6.43105 0.386297 4.70512 1.13576L5.10343 2.05301C6.56784 1.41711 7.81292 1.51675 8.88129 1.94385C9.97029 2.37921 10.8957 3.16342 11.6758 3.93129L12.3773 3.21864ZM4.70512 1.13576C2.26245 2.19646 1.10983 3.9249 0.693317 5.66513C0.283458 7.37756 0.591294 9.07124 1.00332 10.1214L1.93424 9.75619C1.58054 8.85467 1.31306 7.37188 1.66585 5.8979C2.01198 4.45171 2.95997 2.98378 5.10343 2.05301L4.70512 1.13576ZM1.09764 10.2739L11.473 21.767L12.2153 21.0969L1.83992 9.60376L1.09764 10.2739ZM12.3357 21.5235C12.3551 21.4194 12.3748 21.313 12.3947 21.2045L11.4111 21.0239C11.3914 21.1316 11.3719 21.2371 11.3526 21.3403L12.3357 21.5235Z" fill="white"/>
</svg>
