<svg width="25" height="16" viewBox="0 0 25 16" fill="none" xmlns="http://www.w3.org/2000/svg">
<path d="M0 0.78125C0 0.57405 0.08231 0.375335 0.228823 0.228823C0.375336 0.0823098 0.57405 0 0.78125 0H24.2188C24.426 0 24.6247 0.0823098 24.7712 0.228823C24.9177 0.375335 25 0.57405 25 0.78125C25 0.98845 24.9177 1.18716 24.7712 1.33368C24.6247 1.48019 24.426 1.5625 24.2188 1.5625H0.78125C0.57405 1.5625 0.375336 1.48019 0.228823 1.33368C0.08231 1.18716 0 0.98845 0 0.78125ZM24.2188 7.27143H0.78125C0.57405 7.27143 0.375336 7.35374 0.228823 7.50026C0.08231 7.64677 0 7.84548 0 8.05268C0 8.25988 0.08231 8.4586 0.228823 8.60511C0.375336 8.75163 0.57405 8.83393 0.78125 8.83393H24.2188C24.426 8.83393 24.6247 8.75163 24.7712 8.60511C24.9177 8.4586 25 8.25988 25 8.05268C25 7.84548 24.9177 7.64677 24.7712 7.50026C24.6247 7.35374 24.426 7.27143 24.2188 7.27143ZM12.5 14.5429H0.78125C0.57405 14.5429 0.375336 14.6252 0.228823 14.7717C0.08231 14.9182 0 15.1169 0 15.3241C0 15.5313 0.08231 15.73 0.228823 15.8765C0.375336 16.0231 0.57405 16.1054 0.78125 16.1054H12.5C12.7072 16.1054 12.9059 16.0231 13.0524 15.8765C13.1989 15.73 13.2812 15.5313 13.2812 15.3241C13.2812 15.1169 13.1989 14.9182 13.0524 14.7717C12.9059 14.6252 12.7072 14.5429 12.5 14.5429Z" fill="#373737"/>
</svg>
