<svg width="20" height="20" viewBox="0 0 20 20" fill="none" xmlns="http://www.w3.org/2000/svg">
<g clip-path="url(#clip0_343_1168)">
<path d="M19.89 9.945C19.89 4.45252 15.4375 0 9.945 0C4.45252 0 0 4.45252 0 9.945C0 14.9088 3.63672 19.0231 8.39109 19.7692V12.8197H5.866V9.945H8.39109V7.75399C8.39109 5.26153 9.87585 3.88477 12.1475 3.88477C13.2352 3.88477 14.3736 4.079 14.3736 4.079V6.52641H13.1196C11.8843 6.52641 11.4989 7.29306 11.4989 8.08031V9.945H14.2571L13.8162 12.8197H11.4989V19.7692C16.2533 19.0231 19.89 14.9088 19.89 9.945Z" fill="black"/>
</g>
<defs>
<clipPath id="clip0_343_1168">
<rect width="19.89" height="19.89" fill="white"/>
</clipPath>
</defs>
</svg>
