<svg width="20" height="20" viewBox="0 0 20 20" fill="none" xmlns="http://www.w3.org/2000/svg">
<path fill-rule="evenodd" clip-rule="evenodd" d="M12.2718 13.8619C10.9931 14.8054 9.41119 15.3633 7.6987 15.3633C3.44683 15.3633 0 11.9241 0 7.68167C0 3.4392 3.44683 0 7.6987 0C11.9506 0 15.3974 3.4392 15.3974 7.68167C15.3974 9.49515 14.7676 11.1619 13.7143 12.4759L19.3469 18.096C19.7378 18.4861 19.7378 19.1185 19.3469 19.5086C18.9559 19.8987 18.322 19.8987 17.9311 19.5086L12.2718 13.8619ZM13.7766 7.68169C13.7766 11.031 11.0554 13.7462 7.69865 13.7462C4.34191 13.7462 1.62073 11.031 1.62073 7.68169C1.62073 4.33237 4.34191 1.61721 7.69865 1.61721C11.0554 1.61721 13.7766 4.33237 13.7766 7.68169Z" fill="black"/>
</svg>
