<svg width="23" height="21" viewBox="0 0 23 21" fill="none" xmlns="http://www.w3.org/2000/svg">
<path fill-rule="evenodd" clip-rule="evenodd" d="M0.94165 1.30084C0.94165 0.886629 1.27744 0.550842 1.69165 0.550842H5.19167C5.60589 0.550842 5.94167 0.886629 5.94167 1.30084C5.94167 1.32519 5.94051 1.34927 5.93825 1.37302L6.67442 4.46373H20.5877C21.0019 4.46373 21.3377 4.79952 21.3377 5.21373C21.3377 5.319 21.316 5.41921 21.2769 5.51012C21.2761 5.54683 21.2726 5.58398 21.2662 5.62136L20.2078 11.7738C20.1381 12.1792 19.7501 12.4576 19.3403 12.3971C19.2944 12.4059 19.2472 12.4104 19.1988 12.4104H13.7746H8.56724L8.94268 13.9867H19.9926C20.4068 13.9867 20.7426 14.3225 20.7426 14.7367C20.7426 15.1509 20.4068 15.4867 19.9926 15.4867H8.36566C8.30292 15.488 8.24115 15.4814 8.18157 15.4676C8.0717 15.4423 7.97104 15.3929 7.88548 15.3253C7.79929 15.2573 7.72754 15.1702 7.67746 15.0683C7.6507 15.0141 7.63029 14.9562 7.61721 14.8956L4.55773 2.05084H1.69165C1.27744 2.05084 0.94165 1.71506 0.94165 1.30084ZM8.21295 10.923C8.25749 10.9147 8.30341 10.9104 8.35034 10.9104H13.7746H18.8285L19.6794 5.96373H7.0317L8.21295 10.923ZM8.71998 20.1201C9.66984 20.1201 10.4399 19.3741 10.4399 18.4538C10.4399 17.5335 9.66984 16.7875 8.71998 16.7875C7.77012 16.7875 7.0001 17.5335 7.0001 18.4538C7.0001 19.3741 7.77012 20.1201 8.71998 20.1201ZM18.2727 20.1201C19.2226 20.1201 19.9926 19.3741 19.9926 18.4538C19.9926 17.5335 19.2226 16.7875 18.2727 16.7875C17.3228 16.7875 16.5528 17.5335 16.5528 18.4538C16.5528 19.3741 17.3228 20.1201 18.2727 20.1201Z" fill="black"/>
</svg>
