<svg xmlns="http://www.w3.org/2000/svg" viewBox="0 0 251.46 83.2"><defs><style>.cls-1{fill:none;}.cls-2{fill:#e2a672;}.cls-3{fill:#eccc9d;}.cls-4{fill:#c57b71;}.cls-5{fill:#231815;}</style></defs><g id="圖層_2" data-name="圖層 2"><g id="_6_26定案" data-name="6/26定案"><path class="cls-1" d="M31.44,7.69C36.74,12,45.05,12.82,53.68,10c1.26-.41,2.53-.89,3.76-1.35,3.14-1.18,6.4-2.4,9.75-2.58,4.51-.24,9.67,2.16,10.48,6.59s-2.76,7.76-6.56,11.24c-3.55,3.26-7.22,6.63-7.44,11.23-.27,5.46,4.89,9.71,9.81,10.51,5.25.86,10.41-1.07,14.76-3.07.85-.39,1.7-.8,2.54-1.2,3.61-1.73,7.34-3.51,11.28-4.16h0a20.19,20.19,0,0,1,12.5,2.23,42.13,42.13,0,0,0-.49-4.68,20.47,20.47,0,0,0-9.28-.73c-4.09.67-7.88,2.49-11.55,4.24-.84.4-1.68.81-2.53,1.19-4.21,1.94-9.19,3.82-14.17,3-4.5-.74-9.21-4.56-9-9.46.2-4.19,3.72-7.41,7.12-10.53,3.83-3.52,7.8-7.16,6.87-12.18-.87-4.75-6.09-7.43-10.87-7.43l-.66,0C66.52,3.07,63.19,4.32,60,5.53c-1.21.46-2.47.93-3.71,1.33C48,9.56,40,8.76,35,4.72a16,16,0,0,1-3.22-3.57A41.13,41.13,0,0,0,27.2,2.51,17.34,17.34,0,0,0,31.44,7.69Z"/><path class="cls-1" d="M81.53,73.06a47,47,0,0,0-11.38,2.16,68.58,68.58,0,0,1-7.9,1.84A19.77,19.77,0,0,1,51,75.57c-1-3.15-.75-8.93-.52-11.66.22-2.47.66-4.79.11-7.24a5.42,5.42,0,0,0-.47-1.21A6.93,6.93,0,0,0,49,52.6C47.44,50.51,43,48.47,42,48a14.25,14.25,0,0,0-9.55-3.09,45.08,45.08,0,0,0-7.82,1c-1.54.29-3.12.59-4.68.77a35,35,0,0,1-20-3.7c0,1.26.13,2.51.27,3.74a36.29,36.29,0,0,0,21.25,4.19c1.6-.19,3.2-.5,4.75-.79a44.73,44.73,0,0,1,7.64-1,14.87,14.87,0,0,1,7.12,1.62c1.76,3,1.46,6.47,1.13,10.19-.29,3.37-.6,6.84.73,9.94A10.09,10.09,0,0,0,47,76a20.64,20.64,0,0,0,16.82,5.32,68.74,68.74,0,0,0,8-1.87A46.66,46.66,0,0,1,83,77.29a21,21,0,0,1,8.5,1.63c1.13-.55,2.23-1.16,3.3-1.81A23.31,23.31,0,0,0,82,73.05Z"/><path class="cls-2" d="M71.86,79.41a68.74,68.74,0,0,1-8,1.87A20.64,20.64,0,0,1,47,76a10.09,10.09,0,0,1-4.1-5.1c-1.33-3.1-1-6.57-.73-9.94.33-3.72.63-7.24-1.13-10.19a14.87,14.87,0,0,0-7.12-1.62,44.73,44.73,0,0,0-7.64,1c-1.55.29-3.15.6-4.75.79A36.29,36.29,0,0,1,.3,46.68,41.44,41.44,0,0,0,41.44,83.2H73.16A41.17,41.17,0,0,0,91.5,78.92,21,21,0,0,0,83,77.29,46.66,46.66,0,0,0,71.86,79.41Z"/><path class="cls-3" d="M114.61,41.75v-.31c0-.67,0-1.33,0-2a20.19,20.19,0,0,0-12.5-2.23h0c-3.94.65-7.67,2.43-11.28,4.16-.84.4-1.69.81-2.54,1.2-4.35,2-9.51,3.93-14.76,3.07-4.92-.8-10.08-5-9.81-10.51.22-4.6,3.89-8,7.44-11.23,3.8-3.48,7.39-6.77,6.56-11.24s-6-6.83-10.48-6.59c-3.35.18-6.61,1.4-9.75,2.58-1.23.46-2.5.94-3.76,1.35C45.05,12.82,36.74,12,31.44,7.69A17.34,17.34,0,0,1,27.2,2.51,41.47,41.47,0,0,0,0,41.44v.31c0,.4,0,.8,0,1.19a35,35,0,0,0,20,3.7c1.56-.18,3.14-.48,4.68-.77a45.08,45.08,0,0,1,7.82-1A14.25,14.25,0,0,1,42,48c1,.5,5.4,2.54,6.92,4.63a6.93,6.93,0,0,1,1.16,2.86,5.42,5.42,0,0,1,.47,1.21c.55,2.45.11,4.77-.11,7.24-.23,2.73-.49,8.51.52,11.66a19.77,19.77,0,0,0,11.25,1.49,68.58,68.58,0,0,0,7.9-1.84,47,47,0,0,1,11.38-2.16H82a23.31,23.31,0,0,1,12.8,4.06A41.42,41.42,0,0,0,114.61,41.75Z"/><path class="cls-4" d="M35,4.72c5,4,13,4.84,21.29,2.14C57.5,6.46,58.76,6,60,5.53,63.19,4.32,66.52,3.07,70,2.89l.66,0c4.78,0,10,2.68,10.87,7.43.93,5-3,8.66-6.87,12.18-3.4,3.12-6.92,6.34-7.12,10.53-.24,4.9,4.47,8.72,9,9.46,5,.82,10-1.06,14.17-3,.85-.38,1.69-.79,2.53-1.19,3.67-1.75,7.46-3.57,11.55-4.24a20.47,20.47,0,0,1,9.28.73A41.46,41.46,0,0,0,73.16,0H41.44a41.86,41.86,0,0,0-9.69,1.15A16,16,0,0,0,35,4.72Z"/><path class="cls-5" d="M146.32,45.6V15.93h6V39.67h10V45.6Z"/><path class="cls-5" d="M168.91,45.6V15.93h6V45.6Z"/><path class="cls-5" d="M198.71,45.6l-16-25.77v-3.9h4.87l14,22.55V45.6Zm-16,0V24.75H183l5.63,9.07V45.6Zm18.52-12-5.64-9.07V15.93h6V33.57Z"/><path class="cls-5" d="M145.32,67.86v-13h2.62v13Zm3.62-5.92V59.38h.61a1.87,1.87,0,0,0,.37,0,.63.63,0,0,0,.4-.24,1,1,0,0,0,.18-.68,1.06,1.06,0,0,0-.18-.69.63.63,0,0,0-.4-.24,1.87,1.87,0,0,0-.37,0h-.61V54.87h.68a4.11,4.11,0,0,1,2.15.47,2.44,2.44,0,0,1,1.07,1.28,5.16,5.16,0,0,1,.31,1.87,4.67,4.67,0,0,1-.35,1.92,2.26,2.26,0,0,1-1.11,1.15,4.75,4.75,0,0,1-2.07.38Z"/><path class="cls-5" d="M160.73,67.86a3.57,3.57,0,0,1-1.69-.38,2.72,2.72,0,0,1-1.07-.93,2.05,2.05,0,0,1-.37-1.14v-1a3.87,3.87,0,0,1,0-.51,2.15,2.15,0,0,1,.25-.69,1.64,1.64,0,0,1,.71-.63,4,4,0,0,1,.79-.34l1-.34c.35-.12.69-.24,1-.37a4,4,0,0,0,.78-.41.57.57,0,0,0,.31-.45v-.43a.8.8,0,0,0-.08-.36.72.72,0,0,0-.26-.26,1,1,0,0,0-.48-.1V57.29a3.08,3.08,0,0,1,1.78.47,3,3,0,0,1,1.06,1.14,2.56,2.56,0,0,1,.35,1.22V65a1.22,1.22,0,0,0,.09.36c0,.16.2.24.43.24v2.3a3.29,3.29,0,0,1-1-.16,2.22,2.22,0,0,1-.77-.44,2.43,2.43,0,0,1-.82.45,3.43,3.43,0,0,1-1.06.15V65.57a.84.84,0,0,0,.5-.12.79.79,0,0,0,.24-.31,1,1,0,0,0,.06-.31V63.31a5.61,5.61,0,0,1-.69.32,7.24,7.24,0,0,1-.79.25l-.72.19a3.22,3.22,0,0,0-.43.15.43.43,0,0,0-.24.43v.26a.7.7,0,0,0,.08.37.53.53,0,0,0,.31.22,2.44,2.44,0,0,0,.68.07Zm-.85-7.11-2.15-.81a2.2,2.2,0,0,1,.45-1.36,3.31,3.31,0,0,1,1.15-.94,3.07,3.07,0,0,1,1.42-.35v2.28a.79.79,0,0,0-.47.13.76.76,0,0,0-.3.39A1.76,1.76,0,0,0,159.88,60.75Zm-.67-4.61,1.39-2.82h1.23l1.42,2.82h-1.52l-.52-1.06-.5,1.06Z"/><path class="cls-5" d="M174.3,67.86a3.66,3.66,0,0,1-1.92-.43,2.24,2.24,0,0,1-1-1.2,5.43,5.43,0,0,1-.27-1.81V59.68h-1.3V57.29h1.3V54.58h2.49v2.71h1.22V59.7h-1.22v4.91a.94.94,0,0,0,.13.45c.08.16.27.24.55.24h.54l.56,2.56Z"/><path class="cls-5" d="M181.59,56.53a1.31,1.31,0,0,1-1-.4,1.3,1.3,0,0,1,0-1.88,1.34,1.34,0,0,1,1.89,0,1.34,1.34,0,0,1-.94,2.28Zm-1.22,11.33V57.43h2.48V67.86Z"/><path class="cls-5" d="M191.27,68a3.64,3.64,0,0,1-1.92-.45,2.75,2.75,0,0,1-1.07-1.1,2.84,2.84,0,0,1-.35-1.33l2.3-.42a.84.84,0,0,0,.16.49,1.16,1.16,0,0,0,.4.33,1.25,1.25,0,0,0,.48.14Zm.84,0V65.61a1.54,1.54,0,0,0,.48-.09,1.18,1.18,0,0,0,.44-.28.6.6,0,0,0,.19-.46.71.71,0,0,0-.36-.61,3.51,3.51,0,0,0-.91-.38l-1.13-.31a6.5,6.5,0,0,1-1-.35,3.81,3.81,0,0,1-.81-.54,3,3,0,0,1-.67-.91,3.51,3.51,0,0,1,.08-2.88,2.86,2.86,0,0,1,.86-1,3.78,3.78,0,0,1,1.06-.5,3.56,3.56,0,0,1,.92-.15v2.3a1.22,1.22,0,0,0-.62.13.56.56,0,0,0-.24.28.85.85,0,0,0,0,.24.81.81,0,0,0,.32.62,3.29,3.29,0,0,0,1,.54,16,16,0,0,0,1.86.51,2.34,2.34,0,0,1,.73.28,2.24,2.24,0,0,1,.66.54,2.63,2.63,0,0,1,.49.82,3.76,3.76,0,0,1-.29,3,3.1,3.1,0,0,1-1.27,1.14A4,4,0,0,1,192.11,68Zm1-7.46a.8.8,0,0,0-.23-.66,1.09,1.09,0,0,0-.49-.27,1.46,1.46,0,0,0-.35-.07l0-2.3A3.41,3.41,0,0,1,195,58.75a2.54,2.54,0,0,1,.42,1.35Z"/><path class="cls-5" d="M203.4,68a3.64,3.64,0,0,1-1.92-.45,2.78,2.78,0,0,1-1.08-1.1,2.83,2.83,0,0,1-.34-1.33l2.3-.42a.78.78,0,0,0,.16.49,1.08,1.08,0,0,0,.4.33,1.25,1.25,0,0,0,.48.14Zm.83,0V65.61a1.55,1.55,0,0,0,.49-.09,1.18,1.18,0,0,0,.44-.28.64.64,0,0,0,.19-.46.7.7,0,0,0-.37-.61,3.37,3.37,0,0,0-.91-.38c-.36-.11-.74-.21-1.13-.31a6.87,6.87,0,0,1-1-.35,3.52,3.52,0,0,1-.8-.54,2.87,2.87,0,0,1-.67-.91,3.51,3.51,0,0,1,.08-2.88,2.76,2.76,0,0,1,.86-1,3.72,3.72,0,0,1,1.05-.5,3.56,3.56,0,0,1,.93-.15v2.3a1.22,1.22,0,0,0-.62.13.56.56,0,0,0-.24.28.93.93,0,0,0-.05.24.82.82,0,0,0,.33.62,3.18,3.18,0,0,0,1,.54,15.45,15.45,0,0,0,1.86.51,2.34,2.34,0,0,1,.73.28,2.38,2.38,0,0,1,.66.54,2.43,2.43,0,0,1,.48.82,3.13,3.13,0,0,1,.19,1.16,3.28,3.28,0,0,1-.48,1.81A3,3,0,0,1,206,67.56,3.92,3.92,0,0,1,204.23,68Zm1-7.46a.84.84,0,0,0-.23-.66,1.14,1.14,0,0,0-.49-.27,1.55,1.55,0,0,0-.35-.07v-2.3a3.41,3.41,0,0,1,2.93,1.56,2.61,2.61,0,0,1,.41,1.35Z"/><path class="cls-5" d="M215.82,67.86a3.24,3.24,0,0,1-1.43-.31,3.13,3.13,0,0,1-1-.77,3.37,3.37,0,0,1-.62-1,2.3,2.3,0,0,1-.2-.85V60.12a2.35,2.35,0,0,1,.2-.85,3.52,3.52,0,0,1,.63-.94,3.42,3.42,0,0,1,1-.75,3.17,3.17,0,0,1,1.41-.29v2.33a.76.76,0,0,0-.41.11,1,1,0,0,0-.28.26.51.51,0,0,0-.1.3v.93h2.76v-.91a.61.61,0,0,0-.15-.45.69.69,0,0,0-.37-.19,2.28,2.28,0,0,0-.44-.05V57.29a3.66,3.66,0,0,1,2.77,1.33,2.29,2.29,0,0,1,.51,1.48v3.51H215V65a.54.54,0,0,0,.07.27.56.56,0,0,0,.25.23,1.1,1.1,0,0,0,.49.09Zm1,0V65.59a1.38,1.38,0,0,0,.64-.13,1,1,0,0,0,.41-.34,1.35,1.35,0,0,0,.22-.47l2,.76a2.94,2.94,0,0,1-.58,1.16,3.58,3.58,0,0,1-1.14.92A3.26,3.26,0,0,1,216.81,67.86Z"/><path class="cls-5" d="M225.3,67.86V57.29h2.52v1.16a3.68,3.68,0,0,1,.6-.56,3.92,3.92,0,0,1,.88-.49,2.75,2.75,0,0,1,1.06-.21H231l-.58,2.49a2.3,2.3,0,0,0-1.27.38,3.18,3.18,0,0,0-1,.95,2.17,2.17,0,0,0-.38,1.19v5.66Z"/><path class="cls-5" d="M237.2,56.53a1.31,1.31,0,0,1-.95-.4,1.3,1.3,0,0,1,0-1.88,1.34,1.34,0,0,1,1.89,0,1.34,1.34,0,0,1-.94,2.28ZM236,67.86V57.43h2.48V67.86Z"/><path class="cls-5" d="M247.18,67.86a3.28,3.28,0,0,1-1.44-.31,3.24,3.24,0,0,1-1-.77,3.55,3.55,0,0,1-.61-1,2.12,2.12,0,0,1-.2-.85V60.12a2.16,2.16,0,0,1,.2-.85,3.37,3.37,0,0,1,1.65-1.69,3.17,3.17,0,0,1,1.41-.29v2.33a.82.82,0,0,0-.42.11,1.17,1.17,0,0,0-.28.26.6.6,0,0,0-.1.3v.93h2.77v-.91a.61.61,0,0,0-.15-.45.73.73,0,0,0-.37-.19,2.3,2.3,0,0,0-.45-.05V57.29a3.66,3.66,0,0,1,2.77,1.33,2.29,2.29,0,0,1,.51,1.48v3.51h-5.08V65a.58.58,0,0,0,.33.5,1.07,1.07,0,0,0,.49.09Zm1,0V65.59a1.39,1.39,0,0,0,.65-.13,1.06,1.06,0,0,0,.41-.34,1.56,1.56,0,0,0,.22-.47l2,.76a2.92,2.92,0,0,1-.57,1.16,3.58,3.58,0,0,1-1.14.92A3.33,3.33,0,0,1,248.16,67.86Z"/></g></g></svg>